<svg xmlns="http://www.w3.org/2000/svg" width="24" height="24" fill="none" viewBox="0 0 24 24">
  <circle cx="12" cy="12" r="12" fill="#000"/>
  <path fill="#fff" d="M15.692 8.63h-.949a1.12 1.12 0 0 0-.299-.685c-.164-.181-.392-.272-.685-.272-.258 0-.463.047-.615.14a.84.84 0 0 0-.334.378 1.857 1.857 0 0 0-.15.598 7.58 7.58 0 0 0-.035.756v.475h1.872v1.406h-1.872v4.473c0 .17.032.302.097.396a.607.607 0 0 0 .272.202 1.6 1.6 0 0 0 .448.07c.176.006.378.01.607.01V18c-.346 0-.697-.003-1.055-.009h-.993c-.357-.006-.7-.009-1.028-.009-.235 0-.48.003-.739.01h-.712c-.251.005-.5.008-.747.008v-1.16c.006-.07.01-.13.01-.176v-.088c.234 0 .424-.006.57-.017a.852.852 0 0 0 .352-.088.35.35 0 0 0 .176-.211c.035-.094.053-.223.053-.387v-4.447H8.688V10.02h1.248v-.554c0-1.09.287-1.899.86-2.426.581-.527 1.43-.791 2.55-.791a12.152 12.152 0 0 1 1.257.07c.216.018.43.044.641.08.211.029.413.061.607.096l-.159 2.136Z"/>
</svg>
