<svg width="220" height="32" viewBox="0 0 220 32" fill="none" xmlns="http://www.w3.org/2000/svg">
  <!-- LucideBox 24px cube icon -->
  <g transform="translate(4, 4)">
    <!-- 3D Cube paths matching LucideBox at 24px -->
    <path d="M21 16V8a2 2 0 0 0-1-1.73l-7-4a2 2 0 0 0-2 0l-7 4A2 2 0 0 0 3 8v8a2 2 0 0 0 1 1.73l7 4a2 2 0 0 0 2 0l7-4A2 2 0 0 0 21 16z" 
          stroke="#DFE2E5" 
          stroke-width="2" 
          fill="none" 
          stroke-linecap="round" 
          stroke-linejoin="round"/>
    <path d="m3.29 7 8.71 5 8.71-5" 
          stroke="#DFE2E5" 
          stroke-width="2" 
          fill="none" 
          stroke-linecap="round" 
          stroke-linejoin="round"/>
    <path d="m12 22 0-10" 
          stroke="#DFE2E5" 
          stroke-width="2" 
          fill="none" 
          stroke-linecap="round" 
          stroke-linejoin="round"/>
  </g>
  
  <!-- Financial Datasets text (lg = 18px) -->
  <text x="40" y="21" 
        font-family="system-ui, -apple-system, sans-serif" 
        font-size="18" 
        font-weight="bold" 
        fill="#DFE2E5" 
        letter-spacing="-0.025em">
    Financial Datasets
  </text>
</svg>