<?xml version="1.0" encoding="UTF-8"?>
<svg xmlns="http://www.w3.org/2000/svg" width="70" height="11" fill="none" viewBox="0 0 105 11">
  <defs>
    <linearGradient id="text-gradient" x1="105" y1="5.5" x2="0" y2="5.5" gradientUnits="userSpaceOnUse">
      <stop offset="0" stop-color="#8F00FF"/>
      <stop offset="1" stop-color="#2383F4"/>
    </linearGradient>
  </defs>
  <path fill="url(#text-gradient)" d="M4.467 3.455v1.363H.427V3.455h4.04ZM1.352 10V2.982c0-.475.092-.868.277-1.18a1.78 1.78 0 0 1 .767-.704A2.509 2.509 0 0 1 3.5.864c.278 0 .532.02.762.064.233.042.407.08.52.115l-.324 1.363a2.27 2.27 0 0 0-.264-.064 1.648 1.648 0 0 0-.315-.03c-.267 0-.453.063-.558.188-.105.122-.158.294-.158.516V10H1.352Zm4.224 0V3.455h1.815V10H5.576Zm.912-7.39a.986.986 0 0 1-.695-.268.87.87 0 0 1-.285-.652c0-.25.095-.464.285-.643a.978.978 0 0 1 .695-.273c.27 0 .5.091.69.273.193.179.29.393.29.643 0 .253-.097.47-.29.652a.971.971 0 0 1-.69.269Zm4.173 3.606V10H8.846V3.455h1.73v1.154h.076a1.83 1.83 0 0 1 .729-.903c.34-.224.754-.337 1.24-.337.455 0 .85.1 1.189.299.338.198.6.483.788.852.188.366.282.804.282 1.312V10h-1.816V6.156c.003-.4-.1-.713-.306-.937-.208-.228-.493-.341-.857-.341-.244 0-.46.052-.648.158a1.1 1.1 0 0 0-.434.46 1.595 1.595 0 0 0-.158.72Zm7.516 3.908c-.418 0-.79-.073-1.117-.218a1.797 1.797 0 0 1-.775-.652c-.188-.29-.281-.65-.281-1.082 0-.364.066-.67.2-.916.133-.247.315-.446.545-.597.23-.15.492-.264.784-.34.296-.078.605-.131.93-.163.38-.04.687-.076.92-.11.233-.037.402-.091.507-.162a.356.356 0 0 0 .158-.316v-.025c0-.27-.086-.48-.256-.627-.168-.148-.406-.221-.716-.221-.327 0-.587.072-.78.217a1 1 0 0 0-.383.537l-1.68-.136c.086-.398.253-.742.503-1.032.25-.292.573-.517.968-.673.398-.16.858-.239 1.38-.239.364 0 .712.043 1.045.128.335.085.632.217.89.396.262.18.468.41.618.69.15.28.226.613.226 1.002V10H20.14v-.908h-.05a1.846 1.846 0 0 1-.423.542 1.953 1.953 0 0 1-.635.362 2.624 2.624 0 0 1-.856.128Zm.52-1.253c.267 0 .503-.053.707-.158.205-.108.365-.253.482-.435a1.12 1.12 0 0 0 .174-.617v-.695a.973.973 0 0 1-.234.102 4.283 4.283 0 0 1-.328.081 16.55 16.55 0 0 1-.367.064l-.332.047c-.213.031-.4.08-.558.15a.893.893 0 0 0-.371.276.675.675 0 0 0-.132.426c0 .247.09.436.268.567.182.128.412.192.69.192Zm6.39-2.655V10H23.27V3.455H25v1.154h.077a1.83 1.83 0 0 1 .729-.903c.34-.224.754-.337 1.24-.337.454 0 .85.1 1.189.299.338.198.6.483.788.852.188.366.281.804.281 1.312V10H27.49V6.156c.003-.4-.1-.713-.307-.937-.207-.228-.493-.341-.856-.341-.245 0-.46.052-.648.158-.185.105-.33.258-.435.46a1.595 1.595 0 0 0-.157.72Zm8.607 3.912c-.67 0-1.248-.142-1.73-.426a2.88 2.88 0 0 1-1.108-1.193c-.256-.509-.384-1.094-.384-1.756 0-.67.13-1.259.388-1.764a2.88 2.88 0 0 1 1.112-1.19c.48-.286 1.051-.43 1.713-.43.571 0 1.071.104 1.5.311.429.208.768.499 1.018.874s.388.815.414 1.321h-1.713c-.049-.327-.176-.59-.384-.788-.204-.202-.473-.303-.805-.303a1.22 1.22 0 0 0-.737.23c-.208.15-.37.37-.486.66-.117.29-.175.641-.175 1.053 0 .418.057.773.17 1.066.117.292.28.515.49.669.21.153.457.23.738.23a1.2 1.2 0 0 0 .558-.128c.168-.085.305-.209.413-.37a1.42 1.42 0 0 0 .218-.593h1.713c-.029.5-.165.94-.41 1.32a2.47 2.47 0 0 1-1 .887c-.427.213-.931.32-1.514.32ZM37.779 10V3.455h1.815V10H37.78Zm.912-7.39a.987.987 0 0 1-.695-.268.87.87 0 0 1-.285-.652c0-.25.095-.464.285-.643a.978.978 0 0 1 .695-.273c.27 0 .5.091.69.273.194.179.29.393.29.643 0 .253-.096.47-.29.652a.971.971 0 0 1-.69.269Zm4.224 7.514c-.417 0-.79-.073-1.116-.218a1.797 1.797 0 0 1-.776-.652c-.187-.29-.281-.65-.281-1.082 0-.364.067-.67.2-.916.134-.247.316-.446.546-.597.23-.15.491-.264.784-.34a5.9 5.9 0 0 1 .929-.163c.38-.04.687-.076.92-.11.233-.037.402-.091.507-.162a.356.356 0 0 0 .158-.316v-.025c0-.27-.085-.48-.256-.627-.167-.148-.406-.221-.716-.221-.326 0-.586.072-.78.217a1 1 0 0 0-.383.537l-1.68-.136c.086-.398.254-.742.504-1.032.25-.292.572-.517.967-.673.398-.16.858-.239 1.38-.239.364 0 .712.043 1.045.128.335.085.632.217.89.396.262.18.468.41.618.69.15.28.226.613.226 1.002V10H44.88v-.908h-.052a1.848 1.848 0 0 1-.421.542 1.953 1.953 0 0 1-.635.362 2.624 2.624 0 0 1-.857.128Zm.52-1.253c.267 0 .503-.053.707-.158.205-.108.365-.253.482-.435a1.12 1.12 0 0 0 .175-.617v-.695a.975.975 0 0 1-.235.102 4.283 4.283 0 0 1-.328.081c-.122.023-.244.044-.366.064l-.333.047c-.213.031-.399.08-.558.15a.893.893 0 0 0-.37.276.675.675 0 0 0-.133.426c0 .247.09.436.269.567.181.128.412.192.69.192Zm6.39-7.598V10H48.01V1.273h1.815Zm6.643 8.834c-.497 0-.947-.128-1.35-.384-.401-.259-.72-.638-.955-1.138-.233-.503-.35-1.12-.35-1.85 0-.75.121-1.373.363-1.87.241-.5.562-.874.963-1.12.403-.25.845-.376 1.325-.376.367 0 .672.063.916.188.247.122.446.275.597.46.153.182.27.36.35.537h.055V1.273h1.81V10h-1.789V8.952h-.077a2.337 2.337 0 0 1-.362.54 1.8 1.8 0 0 1-.6.44c-.245.116-.543.175-.896.175Zm.576-1.445c.292 0 .54-.08.741-.239.205-.162.361-.387.469-.677.11-.29.166-.63.166-1.019 0-.389-.054-.727-.162-1.014a1.456 1.456 0 0 0-.469-.665 1.192 1.192 0 0 0-.745-.234c-.299 0-.55.08-.755.243a1.487 1.487 0 0 0-.464.673c-.105.287-.158.62-.158.997 0 .38.053.718.158 1.01.108.29.263.517.464.682.205.162.456.243.755.243Zm6.508 1.462c-.418 0-.79-.073-1.117-.218a1.797 1.797 0 0 1-.775-.652c-.188-.29-.281-.65-.281-1.082 0-.364.066-.67.2-.916.133-.247.315-.446.545-.597.23-.15.492-.264.784-.34.296-.078.605-.131.93-.163.38-.04.687-.076.92-.11.233-.037.402-.091.507-.162a.356.356 0 0 0 .158-.316v-.025c0-.27-.086-.48-.256-.627-.168-.148-.406-.221-.716-.221-.327 0-.587.072-.78.217a1 1 0 0 0-.383.537l-1.68-.136c.086-.398.254-.742.504-1.032.25-.292.572-.517.967-.673.398-.16.858-.239 1.38-.239.364 0 .712.043 1.045.128.335.085.632.217.89.396.261.18.468.41.618.69.15.28.226.613.226 1.002V10h-1.722v-.908h-.05a1.846 1.846 0 0 1-.423.542 1.953 1.953 0 0 1-.635.362 2.624 2.624 0 0 1-.856.128Zm.52-1.253c.267 0 .503-.053.707-.158.205-.108.365-.253.482-.435a1.12 1.12 0 0 0 .174-.617v-.695a.973.973 0 0 1-.234.102 4.283 4.283 0 0 1-.328.081 16.55 16.55 0 0 1-.367.064l-.332.047c-.213.031-.4.08-.558.15a.893.893 0 0 0-.371.276.675.675 0 0 0-.132.426c0 .247.09.436.268.567.182.128.412.192.69.192Zm8.056-5.416v1.363h-3.942V3.455h3.942ZM69.08 1.886h1.815V7.99a.83.83 0 0 0 .077.392.42.42 0 0 0 .213.191.879.879 0 0 0 .324.056c.085 0 .17-.007.256-.021.085-.018.15-.03.196-.039l.285 1.351a5.09 5.09 0 0 1-.383.098 3.07 3.07 0 0 1-.601.072c-.438.018-.821-.04-1.15-.174a1.606 1.606 0 0 1-.764-.622c-.181-.282-.27-.637-.268-1.066v-6.34Zm6.096 8.238c-.418 0-.79-.073-1.117-.218a1.797 1.797 0 0 1-.775-.652c-.188-.29-.281-.65-.281-1.082 0-.364.066-.67.2-.916.133-.247.315-.446.545-.597.23-.15.492-.264.784-.34.296-.078.605-.131.93-.163.38-.04.687-.076.92-.11.233-.037.402-.091.507-.162a.356.356 0 0 0 .158-.316v-.025c0-.27-.086-.48-.256-.627-.168-.148-.406-.221-.716-.221-.327 0-.587.072-.78.217a1 1 0 0 0-.383.537l-1.68-.136c.086-.398.254-.742.504-1.032.25-.292.572-.517.967-.673.398-.16.858-.239 1.38-.239.364 0 .712.043 1.045.128.335.085.632.217.89.396.261.18.468.41.618.69.15.28.226.613.226 1.002V10H77.14v-.908h-.05a1.846 1.846 0 0 1-.423.542 1.953 1.953 0 0 1-.635.362 2.624 2.624 0 0 1-.856.128Zm.52-1.253c.267 0 .503-.053.707-.158.205-.108.365-.253.482-.435a1.12 1.12 0 0 0 .174-.617v-.695a.973.973 0 0 1-.234.102 4.283 4.283 0 0 1-.328.081 16.55 16.55 0 0 1-.367.064l-.332.047c-.213.031-.4.08-.558.15a.893.893 0 0 0-.371.276.675.675 0 0 0-.132.426c0 .247.09.436.268.567.182.128.412.192.69.192Zm10.02-3.55-1.662.102a.86.86 0 0 0-.183-.383.973.973 0 0 0-.37-.277 1.26 1.26 0 0 0-.542-.107c-.281 0-.518.06-.711.18-.194.116-.29.272-.29.468 0 .156.062.288.187.396.125.108.34.195.644.26l1.184.239c.637.13 1.111.34 1.424.63.312.29.469.671.469 1.143 0 .429-.127.805-.38 1.129-.25.324-.593.577-1.031.758-.435.18-.936.269-1.504.269-.867 0-1.557-.18-2.071-.541a2.109 2.109 0 0 1-.9-1.483l1.786-.094a.917.917 0 0 0 .392.605c.207.136.473.205.797.205.318 0 .574-.061.767-.184.196-.125.296-.285.298-.481a.5.5 0 0 0-.209-.405c-.136-.108-.346-.19-.63-.247l-1.134-.226c-.639-.128-1.115-.35-1.427-.665-.31-.315-.465-.717-.465-1.206 0-.42.114-.782.341-1.086.23-.304.553-.539.968-.704.417-.164.906-.247 1.465-.247.827 0 1.478.175 1.952.524.477.35.756.826.835 1.428Zm4.276 4.807c-.674 0-1.253-.137-1.74-.41a2.802 2.802 0 0 1-1.116-1.167c-.26-.506-.392-1.104-.392-1.794 0-.673.131-1.264.392-1.773.262-.508.63-.904 1.104-1.189.477-.284 1.037-.426 1.68-.426.43 0 .833.07 1.205.21.375.135.702.341.98.617.281.276.5.622.656 1.04.157.415.235.9.235 1.457v.499H87.47V6.067h3.818a1.39 1.39 0 0 0-.17-.695 1.22 1.22 0 0 0-.474-.473 1.349 1.349 0 0 0-.694-.175c-.276 0-.52.064-.733.192-.21.125-.375.294-.494.507-.12.21-.18.445-.184.703v1.07c0 .324.06.604.18.84.122.235.293.417.515.545.222.128.484.192.788.192.202 0 .387-.029.554-.085a1.11 1.11 0 0 0 .703-.673l1.68.11c-.086.403-.26.756-.525 1.057-.261.298-.6.531-1.014.699-.412.165-.888.247-1.427.247Zm7.67-6.673v1.363H93.72V3.455h3.942Zm-3.047-1.569h1.816V7.99c0 .167.025.298.076.392a.42.42 0 0 0 .213.191.88.88 0 0 0 .324.056c.085 0 .17-.007.256-.021.085-.018.15-.03.196-.039l.285 1.351c-.09.028-.218.061-.383.098-.165.04-.365.064-.601.072-.438.018-.821-.04-1.15-.174a1.606 1.606 0 0 1-.763-.622c-.182-.282-.272-.637-.269-1.066v-6.34Zm9.594 3.435-1.662.102a.864.864 0 0 0-.184-.383.968.968 0 0 0-.37-.277 1.262 1.262 0 0 0-.542-.107c-.281 0-.518.06-.711.18-.193.116-.29.272-.29.468 0 .156.062.288.187.396.125.108.34.195.644.26l1.185.239c.636.13 1.11.34 1.423.63.312.29.469.671.469 1.143 0 .429-.127.805-.38 1.129-.25.324-.593.577-1.031.758-.435.18-.936.269-1.504.269-.867 0-1.557-.18-2.071-.541a2.109 2.109 0 0 1-.9-1.483l1.786-.094a.919.919 0 0 0 .392.605c.208.136.473.205.797.205.318 0 .574-.061.767-.184.196-.125.296-.285.298-.481a.499.499 0 0 0-.208-.405c-.137-.108-.347-.19-.631-.247l-1.134-.226c-.639-.128-1.115-.35-1.427-.665-.31-.315-.465-.717-.465-1.206 0-.42.114-.782.341-1.086.23-.304.553-.539.968-.704.417-.164.906-.247 1.466-.247.826 0 1.477.175 1.951.524.478.35.756.826.836 1.428Z"/></svg>