<svg xmlns="http://www.w3.org/2000/svg" width="148" height="22" fill="none" viewBox="0 0 148 22">
  <g filter="url(#a)">
    <path fill="#2383F4" d="M9.956 4.273V6.09H4.57V4.273h5.386ZM5.803 13V3.642c0-.633.123-1.157.369-1.574.25-.416.59-.729 1.023-.937A3.345 3.345 0 0 1 8.666.818c.371 0 .71.029 1.017.085.31.057.542.108.693.154l-.431 1.818a3.027 3.027 0 0 0-.353-.085 2.198 2.198 0 0 0-.42-.04c-.356 0-.604.083-.744.25-.14.163-.21.392-.21.688V13H5.802Zm5.632 0V4.273h2.42V13h-2.42Zm1.216-9.852c-.36 0-.669-.12-.927-.358a1.16 1.16 0 0 1-.38-.87c0-.333.127-.619.38-.857.258-.243.567-.364.927-.364.36 0 .666.121.92.364.258.238.386.524.386.857 0 .338-.128.627-.386.87-.254.238-.56.358-.92.358Zm5.564 4.807V13h-2.421V4.273h2.307v1.54h.102a2.43 2.43 0 0 1 .972-1.205c.454-.3 1.005-.449 1.653-.449.606 0 1.135.133 1.585.398.451.265.802.644 1.052 1.136.25.489.375 1.072.375 1.75V13h-2.421V7.875c.004-.534-.133-.95-.41-1.25-.276-.303-.656-.455-1.141-.455-.326 0-.614.07-.864.21-.246.14-.44.345-.58.614-.136.265-.206.586-.21.96Zm10.02 5.21c-.556 0-1.052-.097-1.488-.29a2.397 2.397 0 0 1-1.034-.87c-.25-.386-.375-.867-.375-1.443 0-.484.09-.892.267-1.221.178-.33.42-.595.727-.796.307-.2.656-.352 1.046-.454a7.972 7.972 0 0 1 1.238-.216c.508-.053.917-.102 1.228-.148.31-.049.536-.12.676-.216a.475.475 0 0 0 .21-.42v-.034c0-.36-.114-.638-.34-.835-.224-.197-.543-.296-.955-.296-.436 0-.782.097-1.04.29a1.33 1.33 0 0 0-.511.716l-2.24-.182a3.06 3.06 0 0 1 .671-1.375c.334-.39.764-.69 1.29-.898.53-.212 1.144-.318 1.841-.318.485 0 .949.057 1.392.17.447.114.843.29 1.188.529.348.239.623.545.823.92.201.372.302.817.302 1.336V13h-2.296v-1.21h-.068a2.45 2.45 0 0 1-.563.721 2.603 2.603 0 0 1-.846.483c-.33.114-.71.17-1.142.17Zm.694-1.67c.356 0 .67-.07.943-.21a1.67 1.67 0 0 0 .642-.58 1.5 1.5 0 0 0 .233-.824v-.926c-.076.049-.18.094-.312.136a5.71 5.71 0 0 1-.438.108 21.7 21.7 0 0 1-.488.085l-.444.063a2.995 2.995 0 0 0-.744.198 1.19 1.19 0 0 0-.494.37.9.9 0 0 0-.176.568c0 .33.119.581.358.756.242.17.549.255.92.255Zm8.52-3.54V13h-2.42V4.273h2.306v1.54h.102a2.44 2.44 0 0 1 .972-1.205c.455-.3 1.006-.449 1.654-.449.606 0 1.134.133 1.585.398.45.265.8.644 1.05 1.136.25.489.376 1.072.376 1.75V13h-2.42V7.875c.003-.534-.133-.95-.41-1.25-.276-.303-.657-.455-1.142-.455-.325 0-.613.07-.863.21a1.46 1.46 0 0 0-.58.614c-.136.265-.206.586-.21.96Zm11.476 5.216c-.894 0-1.663-.19-2.307-.569a3.841 3.841 0 0 1-1.477-1.59c-.341-.679-.512-1.459-.512-2.342 0-.893.173-1.678.517-2.352a3.84 3.84 0 0 1 1.483-1.585c.64-.383 1.402-.574 2.284-.574.762 0 1.428.138 2 .415a3.343 3.343 0 0 1 1.358 1.165c.334.5.517 1.087.551 1.761h-2.284c-.064-.436-.234-.786-.511-1.051-.273-.27-.63-.404-1.074-.404-.375 0-.703.103-.983.307-.276.201-.492.495-.648.88-.155.387-.233.855-.233 1.404 0 .557.076 1.03.228 1.42.155.391.373.688.653.893.28.204.608.307.983.307.277 0 .525-.057.744-.17.224-.114.408-.28.552-.495.147-.22.244-.483.29-.79h2.283c-.037.667-.22 1.254-.545 1.761a3.295 3.295 0 0 1-1.335 1.182c-.568.284-1.24.427-2.017.427ZM54.372 13V4.273h2.42V13h-2.42Zm1.216-9.852c-.36 0-.669-.12-.926-.358a1.16 1.16 0 0 1-.38-.87c0-.333.126-.619.38-.857.258-.243.566-.364.926-.364.36 0 .667.121.92.364.258.238.387.524.387.857 0 .338-.129.627-.387.87-.253.238-.56.358-.92.358Zm5.632 10.017c-.557 0-1.053-.097-1.489-.29a2.397 2.397 0 0 1-1.034-.87c-.25-.386-.375-.867-.375-1.443 0-.484.09-.892.267-1.221.178-.33.42-.595.728-.796a3.54 3.54 0 0 1 1.045-.454 7.97 7.97 0 0 1 1.239-.216c.507-.053.916-.102 1.227-.148.31-.049.536-.12.676-.216a.475.475 0 0 0 .21-.42v-.034c0-.36-.113-.638-.34-.835-.224-.197-.542-.296-.955-.296-.436 0-.782.097-1.04.29-.257.19-.428.428-.511.716l-2.239-.182c.114-.53.337-.989.67-1.375.334-.39.764-.69 1.29-.898.53-.212 1.144-.318 1.841-.318.485 0 .95.057 1.392.17.447.114.843.29 1.188.529.348.239.623.545.824.92.2.372.3.817.3 1.336V13H63.84v-1.21h-.069c-.14.273-.327.513-.562.721a2.603 2.603 0 0 1-.847.483c-.33.114-.71.17-1.142.17Zm.693-1.67c.356 0 .67-.07.944-.21a1.67 1.67 0 0 0 .642-.58 1.5 1.5 0 0 0 .232-.824v-.926c-.075.049-.18.094-.312.136a5.698 5.698 0 0 1-.438.108c-.162.03-.325.059-.488.085l-.443.063a2.994 2.994 0 0 0-.745.198 1.19 1.19 0 0 0-.494.37.9.9 0 0 0-.176.568c0 .33.12.581.358.756.242.17.55.255.92.255Zm8.52-10.131V13h-2.42V1.364h2.42Zm8.858 11.778c-.663 0-1.263-.17-1.8-.511-.535-.345-.96-.85-1.274-1.517-.31-.67-.466-1.493-.466-2.466 0-1 .161-1.832.483-2.495.322-.666.75-1.164 1.285-1.494a3.29 3.29 0 0 1 1.766-.5c.49 0 .896.083 1.222.25.33.163.595.368.796.614.204.242.36.48.466.716h.073V1.364h2.415V13h-2.386v-1.398h-.102a3.125 3.125 0 0 1-.484.722 2.4 2.4 0 0 1-.8.585c-.326.155-.724.233-1.194.233Zm.767-1.926c.39 0 .72-.106.989-.318.273-.216.48-.517.625-.904.148-.386.222-.839.222-1.358 0-.519-.073-.97-.216-1.352-.144-.382-.353-.678-.625-.886-.273-.209-.605-.313-.995-.313-.398 0-.733.108-1.005.324-.273.216-.48.515-.62.898-.14.382-.21.826-.21 1.33 0 .507.07.956.21 1.346.144.386.35.69.62.909.272.216.608.324 1.005.324Zm8.678 1.949c-.557 0-1.053-.097-1.489-.29a2.397 2.397 0 0 1-1.034-.87c-.25-.386-.375-.867-.375-1.443 0-.484.09-.892.267-1.221.178-.33.42-.595.727-.796.307-.2.656-.352 1.046-.454a7.972 7.972 0 0 1 1.239-.216c.507-.053.916-.102 1.227-.148.31-.049.536-.12.676-.216a.475.475 0 0 0 .21-.42v-.034c0-.36-.114-.638-.34-.835-.224-.197-.543-.296-.955-.296-.436 0-.782.097-1.04.29a1.33 1.33 0 0 0-.511.716l-2.24-.182a3.05 3.05 0 0 1 .671-1.375c.334-.39.764-.69 1.29-.898.53-.212 1.144-.318 1.841-.318.485 0 .949.057 1.392.17.447.114.843.29 1.188.529.348.239.623.545.823.92.201.372.302.817.302 1.336V13h-2.296v-1.21h-.068a2.45 2.45 0 0 1-.563.721 2.603 2.603 0 0 1-.846.483c-.33.114-.71.17-1.142.17Zm.693-1.67c.356 0 .67-.07.943-.21a1.67 1.67 0 0 0 .642-.58c.156-.243.233-.518.233-.824v-.926c-.076.049-.18.094-.312.136a5.71 5.71 0 0 1-.438.108c-.163.03-.326.059-.489.085l-.443.063a2.995 2.995 0 0 0-.744.198 1.19 1.19 0 0 0-.494.37.9.9 0 0 0-.176.568c0 .33.119.581.358.756.242.17.549.255.92.255Zm10.741-7.222V6.09h-5.255V4.273h5.255Zm-4.062-2.091h2.42v8.136c0 .224.034.398.103.523a.564.564 0 0 0 .284.256c.125.049.269.074.432.074.113 0 .227-.01.34-.029l.262-.051.381 1.801a6.887 6.887 0 0 1-.512.13 4.09 4.09 0 0 1-.801.097c-.583.023-1.095-.055-1.534-.233a2.141 2.141 0 0 1-1.017-.83c-.242-.374-.362-.848-.358-1.42V2.182Zm8.128 10.983c-.557 0-1.053-.097-1.489-.29a2.401 2.401 0 0 1-1.034-.87c-.25-.386-.375-.867-.375-1.443 0-.484.089-.892.267-1.221.178-.33.421-.595.727-.796.307-.2.656-.352 1.046-.454a7.98 7.98 0 0 1 1.238-.216c.508-.053.917-.102 1.228-.148.31-.049.536-.12.676-.216a.475.475 0 0 0 .21-.42v-.034c0-.36-.114-.638-.341-.835-.223-.197-.541-.296-.954-.296-.436 0-.783.097-1.04.29a1.33 1.33 0 0 0-.511.716l-2.239-.182c.114-.53.337-.989.67-1.375.334-.39.764-.69 1.29-.898.53-.212 1.144-.318 1.841-.318.485 0 .949.057 1.392.17.447.114.843.29 1.188.529.348.239.623.545.823.92.201.372.302.817.302 1.336V13h-2.296v-1.21h-.068a2.45 2.45 0 0 1-.563.721 2.598 2.598 0 0 1-.846.483c-.33.114-.71.17-1.142.17Zm.693-1.67c.356 0 .67-.07.943-.21a1.68 1.68 0 0 0 .642-.58c.156-.243.233-.518.233-.824v-.926c-.076.049-.18.094-.312.136a5.727 5.727 0 0 1-.438.108 21.7 21.7 0 0 1-.488.085l-.444.063a2.992 2.992 0 0 0-.744.198 1.183 1.183 0 0 0-.494.37.896.896 0 0 0-.176.568c0 .33.119.581.358.756.242.17.549.255.92.255ZM118.29 6.76l-2.216.137a1.146 1.146 0 0 0-.244-.512 1.296 1.296 0 0 0-.495-.369 1.678 1.678 0 0 0-.721-.142c-.375 0-.692.08-.949.239-.258.155-.387.363-.387.625 0 .208.084.384.25.528.167.144.453.26.858.347l1.58.318c.848.174 1.481.454 1.898.84.416.387.625.895.625 1.524 0 .571-.169 1.073-.506 1.505-.333.432-.792.77-1.375 1.011-.58.24-1.248.359-2.006.359-1.155 0-2.075-.241-2.761-.722a2.81 2.81 0 0 1-1.199-1.977l2.381-.125c.072.352.246.62.522.806.277.182.631.273 1.063.273.424 0 .765-.081 1.023-.244.261-.167.394-.38.397-.642a.665.665 0 0 0-.278-.54c-.182-.144-.462-.254-.841-.33l-1.511-.3c-.853-.171-1.487-.467-1.904-.887-.413-.42-.619-.956-.619-1.608 0-.56.152-1.044.455-1.449.306-.405.736-.718 1.289-.937.557-.22 1.209-.33 1.955-.33 1.102 0 1.97.233 2.602.699.637.466 1.008 1.1 1.114 1.903Zm5.7 6.41c-.898 0-1.67-.182-2.318-.546a3.74 3.74 0 0 1-1.489-1.557c-.348-.674-.522-1.471-.522-2.392 0-.898.174-1.685.522-2.364a3.866 3.866 0 0 1 1.472-1.585c.636-.379 1.382-.568 2.238-.568.576 0 1.112.093 1.608.279.5.181.936.456 1.307.823.375.368.667.83.875 1.387.209.553.313 1.2.313 1.943v.665h-7.37v-1.5h5.091c0-.349-.075-.658-.227-.926a1.625 1.625 0 0 0-.631-.631 1.796 1.796 0 0 0-.926-.233c-.367 0-.693.085-.977.256-.28.166-.5.392-.659.676-.159.28-.241.593-.244.937V9.26c0 .432.079.805.238 1.12.163.314.392.556.688.727.295.17.646.256 1.051.256.269 0 .515-.038.738-.114a1.48 1.48 0 0 0 .938-.898l2.239.148a3.063 3.063 0 0 1-.699 1.41c-.349.397-.8.707-1.353.93-.549.22-1.183.33-1.903.33Zm10.227-8.898V6.09h-5.255V4.273h5.255Zm-4.062-2.091h2.42v8.136c0 .224.034.398.103.523a.56.56 0 0 0 .284.256c.125.049.269.074.431.074.114 0 .228-.01.341-.029l.262-.051.38 1.801a6.695 6.695 0 0 1-.511.13c-.22.054-.487.086-.801.097-.583.023-1.095-.055-1.534-.233a2.138 2.138 0 0 1-1.017-.83c-.243-.374-.362-.848-.358-1.42V2.182Zm12.791 4.58-2.216.136a1.146 1.146 0 0 0-.244-.512 1.296 1.296 0 0 0-.495-.369 1.675 1.675 0 0 0-.721-.142c-.375 0-.691.08-.949.239-.258.155-.386.363-.386.625 0 .208.083.384.25.528.166.144.452.26.858.347l1.579.318c.849.174 1.481.454 1.898.84.417.387.625.895.625 1.524 0 .571-.169 1.073-.506 1.505-.333.432-.791.77-1.375 1.011-.579.24-1.248.359-2.005.359-1.156 0-2.076-.241-2.762-.722a2.813 2.813 0 0 1-1.199-1.977l2.381-.125c.072.352.246.62.523.806.276.182.63.273 1.062.273.424 0 .765-.081 1.023-.244.261-.167.394-.38.398-.642a.669.669 0 0 0-.279-.54c-.182-.144-.462-.254-.841-.33l-1.511-.3c-.852-.171-1.487-.467-1.903-.887-.413-.42-.62-.956-.62-1.608 0-.56.152-1.044.455-1.449.307-.405.737-.718 1.29-.937.556-.22 1.208-.33 1.954-.33 1.102 0 1.97.233 2.602.699.637.466 1.008 1.1 1.114 1.903Z"/>
  </g>
  <defs>
    <filter id="a" width="146.575" height="20.472" x=".57" y=".699" color-interpolation-filters="sRGB" filterUnits="userSpaceOnUse">
      <feFlood flood-opacity="0" result="BackgroundImageFix"/>
      <feColorMatrix in="SourceAlpha" result="hardAlpha" values="0 0 0 0 0 0 0 0 0 0 0 0 0 0 0 0 0 0 127 0"/>
      <feOffset dy="4"/>
      <feGaussianBlur stdDeviation="2"/>
      <feComposite in2="hardAlpha" operator="out"/>
      <feColorMatrix values="0 0 0 0 0 0 0 0 0 0 0 0 0 0 0 0 0 0 0.25 0"/>
      <feBlend in2="BackgroundImageFix" result="effect1_dropShadow_24_3"/>
      <feBlend in="SourceGraphic" in2="effect1_dropShadow_24_3" result="shape"/>
    </filter>
  </defs>
</svg>
